<?xml version="1.0" encoding="utf-8"?>
<!-- Generator: Adobe Illustrator 25.1.0, SVG Export Plug-In . SVG Version: 6.00 Build 0)  -->
<svg version="1.1" id="Layer_1" xmlns="http://www.w3.org/2000/svg" xmlns:xlink="http://www.w3.org/1999/xlink" x="0px" y="0px"
	 viewBox="0 0 1037 330" style="enable-background:new 0 0 1037 330;" xml:space="preserve">
<style type="text/css">
	.st0{fill:#01B8FC;}
	.st1{fill:#0B144B;}
	.st2{fill:#FFFFFF;}
</style>
<path class="st0" d="M1026,160.28v44.62c0,5.67-4.59,10.58-10.25,10.97L627.7,243.04c-5.66,0.39-10.25-3.87-10.25-9.54v-44.62
	c0-5.66,4.59-10.58,10.25-10.97l388.05-27.16C1021.41,150.35,1026,154.62,1026,160.28"/>
<path class="st1" d="M676.51,200.54c0,0.76-0.51,1.3-1.27,1.36l-5.08,0.35c-0.76,0.05-1.27-0.42-1.27-1.18v-1.78
	c0-1.52-1.01-2.47-2.54-2.36l-7.36,0.52c-1.52,0.11-2.54,1.19-2.54,2.71v17.76c0,1.52,1.02,2.47,2.54,2.36l7.36-0.51
	c1.52-0.11,2.54-1.19,2.54-2.72v-1.78c0-0.76,0.51-1.3,1.27-1.36l5.08-0.35c0.76-0.05,1.27,0.42,1.27,1.18v3.3
	c0,5.33-2.54,8.04-7.86,8.41l-11.93,0.83c-5.33,0.37-7.86-1.99-7.86-7.32v-20.8c0-5.33,2.54-8.04,7.86-8.42l11.93-0.83
	c5.33-0.37,7.86,1.99,7.86,7.32V200.54z"/>
<path class="st1" d="M710.51,215.67c0,5.33-2.54,8.04-7.86,8.42l-12.43,0.87c-5.33,0.37-7.87-1.99-7.87-7.32v-20.81
	c0-5.33,2.54-8.04,7.87-8.41l12.43-0.87c5.33-0.37,7.86,1.99,7.86,7.32V215.67z M702.9,196.92c0-1.52-1.02-2.47-2.54-2.36
	l-7.86,0.55c-1.52,0.11-2.54,1.19-2.54,2.72v17.76c0,1.52,1.02,2.47,2.54,2.36l7.86-0.55c1.52-0.11,2.54-1.19,2.54-2.72V196.92z"/>
<path class="st1" d="M734.11,221.38c-1.02,0.07-1.52-0.4-1.78-1.14l-6.6-18.82l-0.51,0.04v19.28c0,0.76-0.51,1.31-1.27,1.36
	l-5.08,0.36c-0.76,0.05-1.27-0.42-1.27-1.18v-32.99c0-0.76,0.51-1.3,1.27-1.35l7.1-0.5c1.01-0.07,1.52,0.4,1.78,1.14l7.61,21.29
	l0.51-0.04l7.61-22.35c0.25-0.78,0.76-1.32,1.78-1.39l7.1-0.5c0.76-0.05,1.27,0.42,1.27,1.18v32.98c0,0.76-0.51,1.3-1.27,1.36
	l-5.07,0.36c-0.76,0.05-1.27-0.42-1.27-1.18V200l-0.51,0.04l-6.6,19.74c-0.25,0.78-0.76,1.32-1.78,1.39L734.11,221.38z"/>
<path class="st1" d="M768.87,208.55v9.14c0,0.76-0.51,1.3-1.27,1.36l-5.07,0.35c-0.76,0.05-1.27-0.42-1.27-1.18v-32.98
	c0-0.76,0.51-1.3,1.27-1.36l17.25-1.21c5.33-0.37,7.86,1.99,7.86,7.32v9.39c0,5.33-2.54,8.04-7.86,8.41L768.87,208.55z
	 M768.87,190.28v11.42l8.63-0.6c1.52-0.11,2.54-1.19,2.54-2.72v-6.34c0-1.52-1.01-2.47-2.54-2.36L768.87,190.28z"/>
<path class="st1" d="M794.25,182.92c0-0.76,0.51-1.3,1.27-1.36l5.07-0.35c0.76-0.05,1.27,0.42,1.27,1.18v25.37
	c0,1.52,1.01,2.47,2.54,2.36l6.85-0.48c1.52-0.11,2.54-1.19,2.54-2.72v-25.38c0-0.76,0.51-1.3,1.27-1.35l5.08-0.36
	c0.76-0.05,1.27,0.42,1.27,1.18v26.89c0,5.33-2.54,8.04-7.86,8.42l-11.42,0.8c-5.33,0.38-7.86-1.99-7.86-7.31V182.92z"/>
<path class="st1" d="M842.72,212.52c0,0.76-0.51,1.3-1.27,1.36l-5.08,0.35c-0.76,0.05-1.27-0.42-1.27-1.18v-27.4l-8.12,0.57
	c-0.76,0.05-1.27-0.42-1.27-1.18v-4.31c0-0.76,0.51-1.31,1.27-1.36l23.85-1.67c0.76-0.05,1.27,0.42,1.27,1.18v4.31
	c0,0.76-0.51,1.3-1.27,1.35l-8.12,0.57V212.52z"/>
<path class="st1" d="M857.53,205.39l-1.78,6.21c-0.2,0.77-0.76,1.32-1.78,1.39l-5.58,0.39c-0.66,0.05-1.01-0.44-0.76-1.21
	l10.66-33.73c0.25-0.78,0.76-1.32,1.77-1.39l6.09-0.43c1.01-0.07,1.52,0.4,1.78,1.15l10.66,32.24c0.25,0.74-0.15,1.28-0.76,1.32
	l-5.58,0.39c-1.01,0.07-1.52-0.4-1.78-1.15l-1.78-5.96L857.53,205.39z M866.67,197.9l-3.3-10.93l-0.51,0.04l-3.3,11.4L866.67,197.9z
	"/>
<path class="st1" d="M909.65,184.24c0,0.76-0.51,1.3-1.27,1.36l-5.08,0.35c-0.76,0.05-1.27-0.42-1.27-1.18v-1.78
	c0-1.52-1.01-2.47-2.54-2.36l-7.36,0.52c-1.52,0.11-2.54,1.19-2.54,2.71v17.76c0,1.52,1.02,2.47,2.54,2.36l7.36-0.51
	c1.52-0.11,2.54-1.19,2.54-2.72v-1.78c0-0.76,0.51-1.3,1.27-1.36l5.08-0.35c0.76-0.05,1.27,0.42,1.27,1.18v3.3
	c0,5.33-2.54,8.04-7.86,8.41L889.86,211c-5.33,0.37-7.86-1.99-7.86-7.32v-20.8c0-5.33,2.54-8.04,7.86-8.42l11.93-0.83
	c5.33-0.37,7.86,1.99,7.86,7.32V184.24z"/>
<path class="st1" d="M923.61,206.86c0,0.76-0.51,1.3-1.27,1.36l-5.08,0.35c-0.76,0.05-1.27-0.42-1.27-1.18v-32.99
	c0-0.76,0.51-1.3,1.27-1.36l5.08-0.35c0.76-0.05,1.27,0.42,1.27,1.18V206.86z"/>
<path class="st1" d="M958.88,198.31c0,5.33-2.54,8.04-7.87,8.41l-12.43,0.87c-5.33,0.37-7.87-1.99-7.87-7.32v-20.8
	c0-5.33,2.54-8.04,7.87-8.42l12.43-0.87c5.33-0.37,7.87,1.99,7.87,7.32V198.31z M951.27,179.55c0-1.52-1.02-2.47-2.54-2.36
	l-7.86,0.55c-1.52,0.11-2.54,1.19-2.54,2.72v17.76c0,1.52,1.02,2.47,2.54,2.36l7.86-0.55c1.52-0.11,2.54-1.19,2.54-2.72V179.55z
	 M947.72,165.59c-0.46,0.79-1.01,1.34-1.78,1.39l-2.54,0.18c-0.66,0.05-1.01-0.44-0.76-1.21l2.29-6.76
	c0.25-0.78,0.76-1.32,1.78-1.39l4.06-0.29c0.76-0.05,1.22,0.42,0.76,1.22L947.72,165.59z"/>
<path class="st1" d="M986.28,190.3v-20.8c0-0.76,0.51-1.31,1.27-1.36l5.07-0.36c0.76-0.05,1.27,0.42,1.27,1.18v32.98
	c0,0.76-0.5,1.31-1.27,1.36l-6.34,0.44c-1.01,0.07-1.37-0.41-1.78-1.14l-10.4-20.08l-0.51,0.04v20.8c0,0.76-0.51,1.31-1.27,1.36
	l-5.08,0.36c-0.76,0.05-1.27-0.42-1.27-1.18v-32.98c0-0.76,0.51-1.31,1.27-1.36l6.34-0.44c1.01-0.07,1.37,0.41,1.78,1.14l10.4,20.08
	L986.28,190.3z"/>
<path class="st2" d="M376.52,127.4c0,16.33-7.77,24.65-24.1,25.79l-36.54,2.56c-16.33,1.14-24.1-6.09-24.1-22.42V69.57
	c0-16.33,7.77-24.65,24.1-25.79l36.54-2.56c16.33-1.14,24.1,6.09,24.1,22.42v10.11c0,2.33-1.55,4-3.89,4.16L357.08,79
	c-2.33,0.16-3.89-1.28-3.89-3.62v-5.44c0-4.66-3.11-7.56-7.78-7.23l-22.55,1.58c-4.66,0.33-7.77,3.66-7.77,8.32v54.43
	c0,4.66,3.11,7.56,7.77,7.23l22.55-1.58c4.67-0.32,7.78-3.65,7.78-8.32v-12.44l-14.77,1.03c-2.33,0.16-3.89-1.28-3.89-3.61V96.12
	c0-2.33,1.56-4,3.89-4.16l34.21-2.39c2.33-0.16,3.89,1.28,3.89,3.62V127.4z"/>
<path class="st2" d="M415.1,124.7l-5.44,19.04c-0.62,2.38-2.33,4.05-5.44,4.27l-17.1,1.19c-2.02,0.14-3.11-1.34-2.33-3.72
	l32.66-103.36c0.78-2.39,2.33-4.05,5.44-4.27l18.66-1.3c3.11-0.22,4.66,1.23,5.44,3.51l32.66,98.79c0.78,2.28-0.47,3.92-2.33,4.05
	l-17.1,1.19c-3.11,0.22-4.67-1.23-5.44-3.51l-5.44-18.28L415.1,124.7z M443.09,101.75l-10.11-33.5l-1.55,0.11l-10.11,34.92
	L443.09,101.75z"/>
<path class="st2" d="M541.17,138.43c-3.11,0.22-4.66-1.23-5.44-3.51l-20.22-57.67l-1.55,0.11v59.09c0,2.33-1.56,4-3.89,4.16
	l-15.55,1.09c-2.33,0.16-3.89-1.28-3.89-3.61V37c0-2.33,1.56-4,3.89-4.16l21.77-1.52c3.11-0.22,4.66,1.23,5.44,3.51l23.32,65.23
	l1.55-0.11l23.33-68.49c0.78-2.39,2.33-4.05,5.44-4.27l21.77-1.52c2.33-0.16,3.89,1.28,3.89,3.61v101.08c0,2.33-1.55,4-3.89,4.16
	l-15.55,1.08c-2.33,0.16-3.89-1.28-3.89-3.61V72.9l-1.55,0.11l-20.22,60.5c-0.78,2.39-2.33,4.05-5.44,4.27L541.17,138.43z"/>
<path class="st2" d="M634.54,128.01c0,2.33-1.55,4-3.89,4.16l-15.55,1.09c-2.33,0.16-3.89-1.28-3.89-3.62V28.57
	c0-2.33,1.55-4,3.89-4.16l15.55-1.09c2.33-0.16,3.89,1.28,3.89,3.61V128.01z"/>
<path class="st2" d="M708.4,85.53V21.78c0-2.33,1.55-4,3.89-4.16l15.55-1.09c2.33-0.16,3.89,1.28,3.89,3.61v101.08
	c0,2.33-1.55,4-3.89,4.16l-19.44,1.36c-3.11,0.22-4.2-1.26-5.44-3.51L671.08,61.7l-1.56,0.11v63.75c0,2.33-1.55,4-3.89,4.16
	l-15.55,1.09c-2.33,0.16-3.89-1.28-3.89-3.62V26.12c0-2.33,1.55-4,3.89-4.16l19.44-1.36c3.11-0.22,4.2,1.26,5.44,3.51l31.88,61.53
	L708.4,85.53z"/>
<path class="st2" d="M827.55,95.86c0,16.33-7.77,24.65-24.1,25.79l-36.54,2.56c-16.33,1.14-24.1-6.09-24.1-22.42V38.03
	c0-16.33,7.77-24.65,24.1-25.79l36.54-2.56c16.33-1.14,24.1,6.09,24.1,22.42v10.11c0,2.33-1.55,4-3.89,4.16l-15.55,1.09
	c-2.33,0.16-3.89-1.28-3.89-3.62V38.4c0-4.66-3.11-7.56-7.78-7.23l-22.55,1.58c-4.66,0.33-7.77,3.66-7.77,8.32v54.43
	c0,4.66,3.11,7.56,7.77,7.23l22.55-1.58c4.67-0.32,7.78-3.65,7.78-8.32V80.38l-14.77,1.03c-2.33,0.16-3.89-1.28-3.89-3.61V64.58
	c0-2.33,1.56-4,3.89-4.16l34.21-2.39c2.33-0.16,3.89,1.28,3.89,3.62V95.86z"/>
<path class="st2" d="M375.64,204.67c0,2.31-1.54,3.95-3.85,4.12l-15.39,1.08c-2.31,0.16-3.85-1.27-3.85-3.58v-5.39
	c0-4.62-3.08-7.48-7.69-7.16l-22.31,1.56c-4.62,0.32-7.69,3.61-7.69,8.23v53.86c0,4.62,3.08,7.48,7.69,7.16l22.31-1.56
	c4.62-0.32,7.69-3.61,7.69-8.23v-5.39c0-2.31,1.54-3.95,3.85-4.12l15.39-1.08c2.31-0.16,3.85,1.27,3.85,3.58v10
	c0,16.16-7.69,24.39-23.85,25.52l-36.16,2.53c-16.16,1.13-23.85-6.03-23.85-22.18v-63.09c0-16.16,7.69-24.39,23.85-25.52l36.16-2.53
	c16.16-1.13,23.85,6.03,23.85,22.18V204.67z"/>
<path class="st2" d="M409.68,273.84c0,2.31-1.54,3.95-3.85,4.12l-15.39,1.08c-2.31,0.16-3.85-1.27-3.85-3.58V175.43
	c0-2.31,1.54-3.95,3.85-4.12l15.39-1.08c2.31-0.16,3.85,1.27,3.85,3.58V273.84z"/>
<path class="st2" d="M472.01,269.48c0,2.31-1.54,3.95-3.85,4.12l-15.39,1.08c-2.31,0.16-3.85-1.27-3.85-3.58V188l-24.62,1.72
	c-2.31,0.16-3.85-1.27-3.85-3.58v-13.08c0-2.31,1.54-3.95,3.85-4.12l72.32-5.06c2.31-0.16,3.85,1.27,3.85,3.58v13.08
	c0,2.31-1.54,3.95-3.85,4.12l-24.62,1.72V269.48z"/>
<path class="st2" d="M553.88,203.74l1.54-0.11l18.47-41.3c1.08-2.39,2.31-4.01,6.15-4.28l16.93-1.18c2.31-0.16,3.54,1.29,2.31,3.69
	l-33.08,69.25v33.08c0,2.31-1.54,3.95-3.85,4.12l-15.39,1.08c-2.31,0.16-3.85-1.27-3.85-3.58v-33.08l-33.08-64.62
	c-1.23-2.22,0-3.85,2.31-4.01l16.93-1.18c3.85-0.27,5.08,1.18,6.15,3.42L553.88,203.74z"/>
<path class="st0" d="M213.34,68.85C190.53,46.15,160.51,34,128.32,34.01c-13.09,0-32.34,1.86-53.94,12.89
	c1.6-7.45,5.69-16.82,14.36-29c-62.25,48.98-32.55,119.84,12.98,137.46c53.76,20.81,58.05,75.15,27.14,110l-55.86-55.6
	c-8.79-8.76-15.08-19.07-18.87-30.05c5.1,2.77,10.73,4.69,16.88,5.39c32.75,3.72,51.3,26.87,57.05,48.58
	c3.92-29.81-12.19-55.67-41.68-64.25c-43.42-12.62-61.29-51.2-53.3-88.08c-2.94,4.18-8.8,11.96-11.15,16.45
	c-9.07,17.18-13.86,36.42-13.82,56.39c0.07,32.18,12.68,62.41,35.48,85.12L129,324.29c0,0,26.49-26.62,29.45-29.57
	c14.95-14.95,24.01-26.43,29.7-46.99c6.51-23.54,4.92-81.08-54.62-103.77c-29.63-11.29-44.37-22.83-56.57-49.06
	c16.24-13.61,34.31-19.46,51.35-19.54c20.17-0.1,40.47,7.35,55.89,22.69c13.29,13.23,21,28.98,22.87,46.26
	c-6.03-4.34-16.4-9.1-29.38-10.64c-24.88-2.94-44.16-27.72-42.82-51.04c-11.76,36.43,11.09,56.59,37.82,67.78
	c42.74,17.89,47.89,71.16,35.79,94.08c13.72-11.56,40.81-42.8,40.81-90.09C249.3,123.68,237.02,92.42,213.34,68.85"/>
</svg>
